<?xml version="1.0" encoding="UTF-8" standalone="no"?>
<!-- Created with Inkscape (http://www.inkscape.org/) -->

<svg
   width="136.91081mm"
   height="29.264559mm"
   viewBox="0 0 136.91081 29.264559"
   version="1.1"
   id="svg1"
   xml:space="preserve"
   inkscape:version="1.4.2 (ebf0e940d0, 2025-05-08)"
   sodipodi:docname="spotlines.svg"
   xmlns:inkscape="http://www.inkscape.org/namespaces/inkscape"
   xmlns:sodipodi="http://sodipodi.sourceforge.net/DTD/sodipodi-0.dtd"
   xmlns="http://www.w3.org/2000/svg"
   xmlns:svg="http://www.w3.org/2000/svg"><sodipodi:namedview
     id="namedview1"
     pagecolor="#ffffff"
     bordercolor="#000000"
     borderopacity="0.25"
     inkscape:showpageshadow="2"
     inkscape:pageopacity="0.0"
     inkscape:pagecheckerboard="0"
     inkscape:deskcolor="#d1d1d1"
     inkscape:document-units="mm"
     inkscape:zoom="0.90509668"
     inkscape:cx="131.47767"
     inkscape:cy="878.91163"
     inkscape:window-width="1920"
     inkscape:window-height="1013"
     inkscape:window-x="0"
     inkscape:window-y="0"
     inkscape:window-maximized="1"
     inkscape:current-layer="layer1"
     showgrid="false"><inkscape:page
       x="0"
       y="0"
       width="136.91081"
       height="29.264559"
       id="page2"
       margin="0"
       bleed="0" /></sodipodi:namedview><defs
     id="defs1" /><g
     inkscape:label="Layer 1"
     inkscape:groupmode="layer"
     id="layer1"
     transform="translate(-39.821454,-309.33573)"><path
       style="opacity:1;fill:none;stroke:#006c00;stroke-width:1.79917;stroke-linecap:butt;stroke-linejoin:round;stroke-dasharray:none;stroke-opacity:1;paint-order:stroke fill markers"
       d="m 105.73024,323.14363 h 22.26345"
       id="path24"
       inkscape:export-filename="/home/davv/Code/spotlines/frontend/logo.svg"
       inkscape:export-xdpi="96"
       inkscape:export-ydpi="96" /><path
       d="m 129.73219,334.35562 q -1.73849,0 -2.68676,-0.94827 -0.94826,-0.97084 -0.94826,-2.70933 v -13.23059 h 2.16747 v 13.04996 q 0,0.97085 0.45155,1.49014 0.47414,0.51929 1.39983,0.51929 0.56444,0 1.06115,-0.22578 l 0.11289,1.78365 q -0.74507,0.27093 -1.55787,0.27093 z m 3.4188,-12.1017 h 2.16747 v 11.96623 h -2.16747 z m 1.08374,-2.30294 q -0.63218,0 -1.06116,-0.4064 -0.4064,-0.4064 -0.4064,-0.99342 0,-0.58702 0.4064,-0.99342 0.42898,-0.42898 1.06116,-0.42898 0.63218,0 1.03858,0.4064 0.42898,0.38382 0.42898,0.97084 0,0.60961 -0.42898,1.03858 -0.4064,0.4064 -1.03858,0.4064 z m 11.41135,2.19005 q 2.28035,0 3.61244,1.33209 1.35467,1.30951 1.35467,3.8608 v 6.88623 h -2.16747 v -6.63787 q 0,-1.73849 -0.83538,-2.61902 -0.83537,-0.88054 -2.39324,-0.88054 -1.76107,0 -2.77707,1.03858 -1.016,1.016 -1.016,2.93511 v 6.16374 h -2.16747 v -11.96623 h 2.07716 v 1.80622 q 0.65475,-0.92569 1.76106,-1.4224 1.12889,-0.49671 2.5513,-0.49671 z m 14.25616,10.31806 q 2.14489,0 3.4544,-1.44498 l 1.17405,1.39982 q -0.79022,0.94827 -2.00943,1.44498 -1.19662,0.49671 -2.68675,0.49671 -1.89654,0 -3.3641,-0.76764 -1.46755,-0.79023 -2.28035,-2.19005 -0.79023,-1.39982 -0.79023,-3.16089 0,-1.73849 0.76765,-3.13832 0.79022,-1.39982 2.14489,-2.16747 1.37724,-0.79022 3.09316,-0.79022 1.6256,0 2.95769,0.74507 1.33209,0.72249 2.12231,2.05458 0.79023,1.33209 0.8128,3.07058 l -9.50525,1.85138 q 0.45156,1.24178 1.51271,1.91911 1.08374,0.67734 2.59645,0.67734 z m -0.49671,-8.48926 q -1.12889,0 -2.032,0.51929 -0.88054,0.51929 -1.37725,1.46756 -0.49671,0.92569 -0.49671,2.16747 v 0.22578 l 7.65387,-1.44498 q -0.29351,-1.30952 -1.30951,-2.12232 -1.016,-0.8128 -2.4384,-0.8128 z m 12.15642,10.38579 q -1.46756,0 -2.82223,-0.38382 -1.35467,-0.4064 -2.12231,-1.016 l 0.90311,-1.71592 q 0.79022,0.56445 1.91911,0.90312 1.12889,0.33866 2.28036,0.33866 2.84481,0 2.84481,-1.6256 0,-0.54187 -0.38383,-0.85795 -0.38382,-0.31609 -0.97084,-0.45156 -0.56445,-0.15805 -1.6256,-0.33867 -1.44498,-0.22578 -2.37067,-0.51929 -0.90312,-0.29351 -1.55787,-0.99342 -0.65476,-0.69991 -0.65476,-1.96427 0,-1.6256 1.35467,-2.59645 1.35467,-0.99342 3.63503,-0.99342 1.19662,0 2.39324,0.29351 1.19663,0.29351 1.96427,0.79022 l -0.92569,1.71592 q -1.46756,-0.94827 -3.4544,-0.94827 -1.37725,0 -2.09974,0.45156 -0.72249,0.45155 -0.72249,1.19662 0,0.58702 0.4064,0.92569 0.4064,0.33867 0.99343,0.49671 0.6096,0.15805 1.69333,0.36125 1.44498,0.24835 2.32552,0.54186 0.90311,0.27094 1.53529,0.94827 0.63217,0.67733 0.63217,1.89654 0,1.6256 -1.39982,2.59644 -1.37725,0.94827 -3.77049,0.94827 z"
       id="text25"
       style="font-weight:500;font-size:22.5778px;line-height:1;font-family:'Montserrat Alternates';-inkscape-font-specification:'Montserrat Alternates, Medium';letter-spacing:-0.193628px;white-space:pre;fill:#64b034;stroke-width:0.264583;stroke-linecap:round;stroke-linejoin:round;paint-order:markers stroke fill"
       aria-label="lines" /><path
       d="m 69.588433,334.40078 c -1.189097,0 -2.340565,-0.18062 -3.454403,-0.54187 -1.098787,-0.3763 -1.964269,-0.85796 -2.596447,-1.44498 l 0.835378,-1.76107 c 0.602075,0.54187 1.36972,0.9859 2.302936,1.33209 0.948267,0.33114 1.919113,0.49671 2.912536,0.49671 1.309513,0 2.287884,-0.21825 2.935114,-0.65475 0.647231,-0.45156 0.970846,-1.04611 0.970846,-1.78365 0,-0.54187 -0.180623,-0.97837 -0.541868,-1.30951 -0.346193,-0.34619 -0.782697,-0.6096 -1.309512,-0.79022 -0.511763,-0.18063 -1.241779,-0.38383 -2.190047,-0.60961 -1.189097,-0.28598 -2.152417,-0.57196 -2.889958,-0.85795 -0.72249,-0.28599 -1.347143,-0.72249 -1.873958,-1.30951 -0.511763,-0.60208 -0.767645,-1.40736 -0.767645,-2.41583 0,-0.84291 0.218252,-1.60303 0.654756,-2.28036 0.451556,-0.67733 1.12889,-1.2192 2.032002,-1.6256 0.903112,-0.4064 2.024476,-0.6096 3.364093,-0.6096 0.933215,0 1.851379,0.12042 2.754491,0.36125 0.903112,0.24083 1.678283,0.58702 2.325514,1.03857 l -0.745068,1.80623 c -0.662282,-0.42145 -1.36972,-0.73754 -2.122313,-0.94827 -0.752593,-0.22578 -1.490135,-0.33867 -2.212624,-0.33867 -1.279409,0 -2.242728,0.23331 -2.889959,0.69992 -0.632178,0.46661 -0.948267,1.06868 -0.948267,1.80622 0,0.54187 0.180622,0.9859 0.541867,1.33209 0.361245,0.33114 0.805275,0.59455 1.33209,0.79022 0.541867,0.18063 1.271883,0.3763 2.190047,0.58703 1.189097,0.28598 2.144891,0.57196 2.86738,0.85795 0.72249,0.28599 1.339617,0.72249 1.85138,1.30951 0.526815,0.58703 0.790223,1.37725 0.790223,2.37067 0,0.82785 -0.225778,1.58797 -0.677334,2.28036 -0.451556,0.67733 -1.136416,1.2192 -2.05458,1.6256 -0.918164,0.39135 -2.047054,0.58703 -3.38667,0.58703 z m 15.249594,-12.25975 c 1.158994,0 2.197573,0.25588 3.115736,0.76765 0.918164,0.51176 1.633128,1.22672 2.144891,2.14489 0.526815,0.91816 0.790223,1.97932 0.790223,3.18347 0,1.20415 -0.263408,2.27283 -0.790223,3.20604 -0.511763,0.91817 -1.226727,1.63313 -2.144891,2.1449 -0.918163,0.51176 -1.956742,0.76764 -3.115736,0.76764 -0.857957,0 -1.64818,-0.16557 -2.370669,-0.49671 -0.707438,-0.33114 -1.309513,-0.8128 -1.806224,-1.44498 v 6.18632 h -2.167469 v -16.34633 h 2.077158 v 1.89653 c 0.481659,-0.66228 1.09126,-1.15899 1.828801,-1.49013 0.737542,-0.34619 1.550343,-0.51929 2.438403,-0.51929 z m -0.180623,10.31806 c 0.767645,0 1.452505,-0.1731 2.05458,-0.51929 0.617127,-0.36125 1.098787,-0.85796 1.44498,-1.49014 0.361245,-0.64723 0.541867,-1.38477 0.541867,-2.21262 0,-0.82785 -0.180622,-1.55787 -0.541867,-2.19005 -0.346193,-0.64723 -0.827853,-1.14394 -1.44498,-1.49013 -0.602075,-0.34619 -1.286935,-0.51929 -2.05458,-0.51929 -0.752593,0 -1.437453,0.18062 -2.054579,0.54186 -0.602075,0.34619 -1.083735,0.83538 -1.44498,1.46756 -0.346193,0.63218 -0.519289,1.3622 -0.519289,2.19005 0,0.82785 0.173096,1.56539 0.519289,2.21262 0.346193,0.63218 0.827853,1.12889 1.44498,1.49014 0.617126,0.34619 1.301986,0.51929 2.054579,0.51929 z m 14.165836,1.89653 c -1.189097,0 -2.25778,-0.26341 -3.206048,-0.79022 -0.948267,-0.52682 -1.693335,-1.24931 -2.235202,-2.16747 -0.526815,-0.93321 -0.790223,-1.98684 -0.790223,-3.16089 0,-1.17405 0.263408,-2.22015 0.790223,-3.13832 0.541867,-0.93321 1.286935,-1.6557 2.235202,-2.16747 0.948268,-0.52681 2.016951,-0.79022 3.206048,-0.79022 1.1891,0 2.25026,0.26341 3.18347,0.79022 0.94827,0.51177 1.68581,1.23426 2.21262,2.16747 0.54187,0.91817 0.81281,1.96427 0.81281,3.13832 0,1.17405 -0.27094,2.22768 -0.81281,3.16089 -0.52681,0.91816 -1.26435,1.64065 -2.21262,2.16747 -0.93321,0.52681 -1.99437,0.79022 -3.18347,0.79022 z m 0,-1.89653 c 0.767645,0 1.45251,-0.1731 2.05458,-0.51929 0.61713,-0.36125 1.09879,-0.85796 1.44498,-1.49014 0.34619,-0.64723 0.51929,-1.38477 0.51929,-2.21262 0,-0.82785 -0.1731,-1.55787 -0.51929,-2.19005 -0.34619,-0.64723 -0.82785,-1.14394 -1.44498,-1.49013 -0.60207,-0.34619 -1.286935,-0.51929 -2.05458,-0.51929 -0.767645,0 -1.460031,0.1731 -2.077158,0.51929 -0.602075,0.34619 -1.083734,0.8429 -1.444979,1.49013 -0.346193,0.63218 -0.519289,1.3622 -0.519289,2.19005 0,0.82785 0.173096,1.56539 0.519289,2.21262 0.361245,0.63218 0.842904,1.12889 1.444979,1.49014 0.617127,0.34619 1.309513,0.51929 2.077158,0.51929 z m 15.31732,1.06115 c -0.31609,0.27093 -0.70743,0.48166 -1.17404,0.63218 -0.46661,0.13547 -0.94827,0.2032 -1.44498,0.2032 -1.20415,0 -2.13737,-0.32361 -2.79965,-0.97084 -0.66228,-0.64723 -0.99342,-1.57292 -0.99342,-2.77707 v -10.97282 h 2.16747 v 2.61903 h 3.43182 v 1.78365 h -3.43182 v 6.47982 c 0,0.64723 0.15804,1.14395 0.47413,1.49014 0.33114,0.34619 0.79775,0.51929 1.39982,0.51929 0.66229,0 1.22673,-0.18815 1.69334,-0.56445 z"
       id="text24"
       style="font-weight:500;font-size:22.5778px;line-height:1;font-family:'Montserrat Alternates';-inkscape-font-specification:'Montserrat Alternates, Medium';letter-spacing:-0.193628px;white-space:pre;fill:#006c00;stroke-width:0.264583;stroke-linecap:round;stroke-linejoin:round;paint-order:markers stroke fill"
       aria-label="Spot"
       sodipodi:nodetypes="sccccscscccccscssscccscscccscsccssscscssccccccccssccsccsccsccssscsccsccsccssccsccsccsccsccsssccccccscscc" /><g
       id="g28"
       transform="translate(28.624567,110.44484)"><circle
         style="opacity:1;fill:#ffcc00;fill-opacity:1;stroke:#0000a8;stroke-width:0;stroke-linecap:round;stroke-linejoin:round;stroke-dasharray:none;stroke-opacity:1;paint-order:stroke fill markers"
         id="circle25"
         cx="20.68499"
         cy="208.45186"
         r="5.063087" /><path
         id="path25"
         style="fill:#64b034;fill-opacity:1;stroke:none;stroke-width:0;stroke-linecap:round;stroke-linejoin:round;stroke-dasharray:none;paint-order:markers stroke fill"
         d="m 20.513033,198.89087 a 9.316131,9.4206763 0 0 0 -9.316147,9.42069 9.316131,9.4206763 0 0 0 1.908524,5.7129 h -1.28e-4 l 7.407751,9.8863 7.40737,-9.88579 a 9.316131,9.4206763 0 0 0 4.94e-4,-4.9e-4 9.316131,9.4206763 0 0 0 1.908396,-5.71291 9.316131,9.4206763 0 0 0 -9.316148,-9.42068 z m 0,5.16144 a 4.2118776,4.2593442 0 0 1 4.211907,4.25925 4.2118776,4.2593442 0 0 1 -4.211907,4.25937 4.2118776,4.2593442 0 0 1 -4.211907,-4.25937 4.2118776,4.2593442 0 0 1 4.211907,-4.25925 z" /><g
         fill="none"
         fill-rule="evenodd"
         id="g27"
         transform="matrix(0.07983901,0,0,0.07983901,-78.431154,195.35739)"
         style="fill:#800080;stroke-width:3.31395"><path
           d="m 1232.2777,249.35314 -1.171,-0.453 c -0.625,-0.391 -0.875,-1.547 -2.003,-2.723 -0.836,-0.872 -0.973,-2.083 -1.351,-3.155 -0.157,-0.469 -0.665,-1.014 -0.203,-1.461 0.319,-0.309 1.164,-0.601 1.542,-0.273 0.391,0.347 0.561,1.376 0.68,1.855 0.129,0.57 0.062,1.199 0.207,1.768 0.177,0.725 0.898,0.374 1.227,0.854 0.145,0.22 0.032,0.54 0.258,0.741 0.209,0.191 0.455,0.132 0.642,0.415 0.232,0.365 0.405,1.049 0.441,1.481 0.036,0.379 -0.269,0.951 -0.269,0.951 z m 105.568,-22.298 c -50.607,13.543 -85.2,21.63 -96.039,24.053 -0.355,-0.289 -0.688,-0.523 -0.834,-0.636 -0.617,-0.468 -1.302,-0.873 -1.656,-1.597 -0.331,-0.679 -0.561,-1.232 -1.039,-1.841 -0.162,-0.204 -0.464,-0.467 -0.38,-0.759 0.08,-0.271 0.467,-0.29 0.553,-0.562 0.094,-0.282 -0.232,-0.525 -0.073,-0.809 0.105,-0.176 0.431,-0.222 0.586,-0.339 0.369,-0.265 0.543,-0.476 0.591,-0.946 0.094,-0.872 -0.13,-1.889 -0.148,-2.772 -0.023,-0.948 -0.169,-1.876 -0.282,-2.815 -0.121,-0.969 -0.013,-1.932 -0.116,-2.908 -0.209,-1.877 0.306,-3.749 0.167,-5.636 -0.131,-1.706 -0.472,-3.482 0.297,-5.091 0.442,-0.93 1.091,-1.745 1.528,-2.674 0.51,-1.062 0.658,-2.24 0.722,-3.408 0.041,-0.724 -0.035,-1.486 0.155,-2.2 0.115,-0.435 0.45,-0.717 0.682,-1.087 0.274,-0.439 0.452,-0.953 0.616,-1.435 0.391,-1.161 0.614,-2.378 1.049,-3.529 0.557,-1.506 1.278,-2.955 1.811,-4.475 0.266,-0.767 0.519,-1.572 0.594,-2.379 0.082,-0.842 -0.092,-1.679 -0.065,-2.521 0.038,-0.866 0.268,-1.705 0.421,-2.557 0.155,-0.859 0.192,-1.737 0.314,-2.598 0.143,-0.996 0.333,-1.94 0.267,-2.946 -0.053,-0.755 -0.06,-1.52 0.066,-2.272 0.127,-0.726 0.417,-1.423 0.427,-2.171 0.015,-2.242 -0.942,-4.474 -0.316,-6.702 0.416,-1.476 -0.215,-3.124 -0.32,-4.617 -0.036,-0.439 -0.169,-0.887 0.038,-1.296 0.171,-0.32 0.515,-0.479 0.651,-0.825 0.422,-1.114 -0.357,-1.591 -0.706,-2.489 -0.842,-2.155 -0.336,-4.741 -0.349,-6.99 -0.01,-0.992 -0.162,-1.978 -0.302,-2.957 -0.282,-2.05 -0.215,-4.141 0,-6.194 0.189,-1.781 0.26,-4.015 1.091,-5.631 0.5,-0.971 1.39,-1.673 2.207,-2.358 2.891,-2.416 5.706,-4.85 8.471,-7.405 0.465,-0.426 0.903,-0.88 1.304,-1.344 0.473,-0.539 0.819,-1.16 1.301,-1.679 1.806,-1.993 3.657,-3.955 5.064,-6.257 0.433,-0.711 0.65,-1.425 1.259,-2.018 0.576,-0.563 0.613,-1.259 1.118,-1.852 0.793,-0.914 1.655,-1.168 1.455,-2.541 -0.072,-0.516 -0.175,-1.08 -0.01,-1.588 0.166,-0.542 0.631,-0.915 0.837,-1.448 0.227,-0.617 0.274,-1.287 0.391,-1.92 0.196,-1.032 0.11,-2.92 0.989,-3.632 0.33,-0.27 0.586,-0.452 0.969,-0.615 0.256,-0.112 0.982,-0.508 0.618,-0.884 -0.184,-0.184 -1.052,-0.028 -1.308,0 -0.448,0.041 -0.791,0.074 -1.261,0.034 0.195,-0.366 0.813,-0.671 1.184,-0.852 0.395,-0.195 1.324,-0.398 0.935,-0.964 -0.352,-0.51 -1.137,-0.255 -1.626,-0.288 -0.246,-0.017 -0.448,-0.162 -0.754,-0.192 -0.432,-0.042 -1.095,-0.063 -1.505,0.064 -0.457,0.151 -0.767,0.604 -1.178,0.834 -0.616,0.339 -0.734,0.86 -1.125,1.412 -0.373,0.514 -0.639,1.031 -0.998,1.556 -1.001,1.413 0.056,3.41 -0.49,4.973 -0.415,1.182 -1.15,2.089 -2.109,2.865 -1.067,0.867 -1.767,1.887 -2.638,2.926 -0.828,1.002 -2.029,1.549 -2.942,2.457 -0.985,0.984 -1.881,1.897 -2.982,2.757 -1.018,0.796 -1.602,1.96 -2.594,2.752 -0.929,0.747 -2.092,1.268 -3.079,1.961 -1.076,0.754 -2.273,1.014 -3.498,1.423 -1.532,0.505 -3.106,0.884 -4.625,1.418 -0.783,0.269 -1.551,0.582 -2.28,0.971 -0.602,0.33 -1.259,1.049 -1.902,1.236 -0.254,0.076 -0.666,-0.069 -0.924,-0.134 -0.632,-0.165 -1.466,0.358 -2.02,-0.094 -0.663,-0.55 -0.046,-1.654 -0.119,-2.35 -0.048,-0.415 -0.208,-0.814 -0.262,-1.228 -0.056,-0.429 0.054,-0.86 0.012,-1.282 -0.027,-0.334 -0.175,-0.583 -0.05,-0.905 0.092,-0.239 -0.102,-0.584 0.061,-0.816 0.239,-0.338 0.371,-0.767 -0.057,-1.496 -0.321,-0.555 -0.39,-1.045 -0.646,-1.558 a 4.844,4.844 0 0 0 -1.175,-1.497 c -1.08,-0.91 -2.593,-1.33 -3.984,-1.33 -2.366,0.002 -5.381,1.316 -6.57,3.471 a 6.327,6.327 0 0 0 -0.822,2.92 c 0,0.229 0.141,1.147 0.206,1.694 0.423,1.192 0.62,2.057 1.118,3.133 0.38,0.791 1.135,1.208 1.372,2.074 0.36,1.341 -0.414,1.261 -1.26,1.958 -0.75,0.621 -0.995,1.283 -2,1.73 -1.042,0.468 -1.171,0.579 -1.825,1.441 -0.096,0.128 -0.19,0.264 -0.272,0.408 a 3.073,3.073 0 0 0 -0.197,0.704 c -0.087,0.539 0.297,1.256 -0.026,1.753 -0.164,0.247 -0.468,0.285 -0.7,0.465 -0.26,0.2 -0.416,0.485 -0.579,0.764 -0.352,0.582 -1.04,0.808 -1.462,1.335 -0.903,1.111 -1.607,2.293 -2.698,3.257 a 24.183,24.183 0 0 0 -1.605,1.597 c -0.577,0.615 -1.01,1.267 -1.533,1.923 -0.377,0.465 -0.83,0.765 -1.29,1.14 -0.358,0.293 -0.553,0.759 -0.927,1.04 -0.27,0.192 -0.626,0.348 -0.917,0.506 -0.831,0.447 -1.831,0.531 -2.613,1.074 -0.604,0.426 -1.309,0.803 -1.845,1.344 -0.514,0.527 -1.003,1.076 -1.529,1.6 -0.594,0.586 -1.069,1.299 -1.608,1.932 -0.607,0.719 -1.468,1.093 -1.97,1.885 -0.392,0.617 -0.998,1.116 -1.47,1.679 -0.445,0.534 -1.055,0.834 -1.64,1.214 -0.433,0.29 -0.864,0.553 -1.241,0.926 -0.396,0.396 -0.396,0.772 -0.568,1.26 -0.106,0.33 -0.516,0.944 -0.858,1.092 -0.233,0.096 -0.527,0.047 -0.778,0.149 -0.371,0.145 -0.721,0.161 -1.095,0.262 -1.821,0.492 -3.504,1.625 -3.741,3.583 -0.087,0.666 -0.226,1.425 -0.226,2.087 0,0.288 0.204,0.832 0.477,0.978 0.381,0.21 0.624,-0.146 0.831,-0.46 0.131,-0.211 0.131,-0.338 0.11,-0.609 -0.047,-0.492 -0.01,-0.797 0.215,-1.243 -0.012,0.038 0.15,0.964 0.168,1.135 0.022,0.264 0.072,0.843 0.482,0.655 0.265,-0.118 0.398,-0.848 0.451,-1.108 0.126,-0.566 0.097,-1.062 0.665,-1.376 0.453,-0.261 1.1,-0.442 1.629,-0.318 0.559,0.13 0.83,1.046 1.357,1.004 0.235,-0.01 0.583,-0.224 0.809,-0.313 0.685,-0.273 1.394,-0.561 2.086,-0.819 1.28,-0.48 2.157,-1.067 3.211,-1.935 0.793,-0.651 1.797,-0.928 2.675,-1.438 0.879,-0.516 1.426,-1.356 2.206,-1.99 0.77,-0.623 1.754,-0.921 2.641,-1.333 0.938,-0.445 1.944,-0.682 2.837,-1.22 1.186,-0.716 2.449,-1.304 3.639,-2.024 1.265,-0.772 2.498,-1.596 3.78,-2.335 0.724,-0.421 1.581,-0.901 1.964,0.131 0.352,0.948 0.262,1.978 0.429,2.96 0.156,0.937 0.677,1.606 1.158,2.395 0.212,0.345 0.333,0.712 0.517,1.065 0.209,0.39 0.479,0.475 0.793,0.756 1.404,1.251 2.221,4.133 2.115,5.942 -0.061,1.072 0.446,2.014 0.647,3.04 0.233,1.166 -0.051,2.345 -0.656,3.363 -0.428,0.731 -0.283,1.677 -0.248,2.485 0.041,0.816 0.012,1.639 0.433,2.378 0.42,0.742 0.488,1.227 0.505,2.09 0.09,3.203 2.382,5.794 3.205,8.789 0.434,1.587 1.068,3.118 1.491,4.703 0.434,1.609 1.118,2.924 1.238,4.635 0.052,0.751 0.376,1.422 0.499,2.162 0.125,0.772 0.152,1.633 -0.01,2.397 -0.192,0.927 -0.722,1.797 -1.026,2.694 -0.377,1.117 -0.827,2.21 -1.228,3.318 -0.179,0.492 -0.239,1.023 -0.425,1.499 -0.221,0.585 -0.597,1.086 -0.867,1.649 -0.242,0.493 -0.301,1.048 -0.532,1.544 -0.203,0.435 -0.487,0.821 -0.75,1.218 -0.567,0.855 -1.102,1.745 -1.437,2.716 -0.593,1.724 -1.372,3.397 -1.704,5.192 -0.147,0.78 -0.2,1.574 -0.4,2.344 -0.19,0.74 -0.19,1.533 -0.403,2.264 -0.178,0.594 -0.593,1.747 -0.683,2.349 l -10e-4,0.033 c -19.675,-8.464 -55.688,-24.39 -89.867,-40.74 a 65.021,65.021 0 0 0 2.734,7.137 c 39.309,15.839 76.46,31.285 92.976,38.239 1.082,1.359 2.032,0.944 2.498,1.243 0.724,0.463 1.379,0.392 1.379,0.392 1.634,0.69 3.009,1.271 4.103,1.73 0.095,0.084 0.193,0.158 0.299,0.243 0.446,0.378 0.822,0.348 1.324,0.646 0.455,0.272 0.876,0.314 1.372,0.379 a 0.972,0.972 0 0 0 0.069,0.034 l 0.057,-0.011 0.117,0.017 c 0.52,0.087 1.073,0.205 1.562,0 0.452,-0.186 1.168,-0.28 1.664,-0.37 0.668,-0.12 1.833,0.307 2.725,-0.148 0.359,-0.189 0.403,-0.462 0.279,-0.767 12.268,-2.466 44.508,-9.094 89.076,-18.828 a 85.605,85.605 0 0 0 5.87,-6.459 z"
           fill="#fffffe"
           id="path26"
           style="fill:#800080;fill-opacity:1;stroke-width:3.31395" /></g></g></g></svg>
